<?xml version="1.0" standalone="no"?>
<!DOCTYPE svg PUBLIC "-//W3C//DTD SVG 20010904//EN"
 "http://www.w3.org/TR/2001/REC-SVG-20010904/DTD/svg10.dtd">
<svg version="1.0" xmlns="http://www.w3.org/2000/svg"
 width="786.000000pt" height="430.000000pt" viewBox="0 0 786.000000 430.000000"
 preserveAspectRatio="xMidYMid meet">

<g transform="translate(0.000000,430.000000) scale(0.100000,-0.100000)"
fill="#000000" stroke="none">
<path d="M734 3525 c-101 -22 -172 -61 -250 -139 -75 -76 -112 -139 -141 -248
-26 -94 -25 -514 1 -608 54 -195 186 -324 386 -377 100 -27 295 -24 379 6 203
71 316 232 346 494 l6 57 -190 0 -191 0 0 -53 c0 -71 -24 -148 -55 -177 -22
-21 -38 -25 -98 -28 -88 -4 -128 17 -157 81 -18 38 -20 67 -20 307 0 241 2
269 20 308 32 70 132 102 215 68 50 -21 65 -53 75 -158 5 -51 10 -94 10 -95 0
-2 88 -3 195 -3 l196 0 -7 68 c-25 282 -174 466 -404 502 -88 14 -242 11 -316
-5z"/>
<path d="M1983 3530 c-133 -24 -256 -96 -329 -193 -101 -134 -117 -209 -112
-537 3 -224 6 -251 26 -310 59 -169 191 -290 365 -337 87 -24 308 -23 396 0
189 51 332 195 376 378 21 92 21 520 0 604 -49 191 -183 330 -366 381 -65 18
-284 27 -356 14z m227 -322 c83 -42 85 -52 85 -373 0 -251 -2 -283 -18 -313
-28 -50 -71 -72 -145 -72 -76 0 -111 18 -141 70 -20 36 -21 52 -21 314 0 260
1 279 21 317 37 74 135 99 219 57z"/>
<path d="M5645 3533 c-119 -16 -232 -73 -313 -157 -124 -129 -152 -231 -152
-549 0 -241 13 -318 71 -427 38 -71 136 -168 205 -203 106 -54 278 -78 418
-58 214 30 374 188 420 413 9 42 16 95 16 118 l0 40 -184 0 -183 0 -7 -72
c-14 -145 -54 -188 -170 -188 -55 0 -69 4 -97 27 -56 47 -59 66 -59 357 0 296
5 327 63 368 25 18 46 23 94 23 106 0 142 -43 151 -181 l5 -84 195 0 195 0 -6
83 c-12 151 -63 273 -153 363 -62 61 -134 99 -229 119 -64 13 -208 18 -280 8z"/>
<path d="M2830 2835 l0 -685 185 0 185 0 0 305 c0 168 4 305 9 305 4 0 23 -37
40 -82 17 -46 76 -182 130 -303 l97 -220 192 -3 192 -2 0 685 0 685 -187 -2
-188 -3 -5 -310 -5 -310 -20 54 c-11 29 -70 169 -131 310 l-112 256 -191 3
-191 2 0 -685z"/>
<path d="M4080 2835 l0 -685 490 0 490 0 0 23 c0 12 -8 86 -17 165 l-17 142
-268 0 -268 0 0 110 0 110 255 0 255 0 0 150 0 150 -255 0 -255 0 0 100 0 100
268 2 267 3 17 125 c9 69 17 140 17 158 l1 32 -490 0 -490 0 0 -685z"/>
<path d="M6430 3355 l0 -165 175 0 175 0 0 -520 0 -520 205 0 205 0 0 520 0
520 175 0 175 0 0 165 0 165 -555 0 -555 0 0 -165z"/>
<path d="M2220 1295 l0 -685 205 0 205 0 0 240 0 240 173 0 c193 0 248 10 330
62 62 40 130 116 164 186 26 54 28 64 28 192 0 134 0 136 -34 205 -64 129
-180 215 -318 235 -37 5 -222 10 -410 10 l-343 0 0 -685z m638 349 c74 -52 66
-204 -14 -234 -14 -6 -68 -10 -120 -10 l-94 0 0 130 0 130 103 0 c77 0 108 -4
125 -16z"/>
<path d="M3477 1973 c-4 -3 -7 -312 -7 -685 l0 -678 495 0 496 0 -6 33 c-5 33
-35 276 -35 289 0 4 -121 8 -270 8 l-270 0 0 110 0 110 260 0 260 0 0 150 0
150 -260 0 -260 0 0 100 0 100 270 0 c209 0 270 3 270 13 1 6 9 75 19 152 10
77 17 143 14 148 -5 9 -967 10 -976 0z"/>
<path d="M4617 1973 c-4 -3 -7 -78 -7 -165 l0 -158 175 0 175 0 0 -520 0 -520
205 0 205 0 0 520 0 520 175 0 175 0 -2 163 -3 162 -546 3 c-300 1 -549 -1
-552 -5z"/>
</g>
</svg>
